<svg fill="currentColor"  t="1640844780973" viewBox="0 0 1024 1024" version="1.1" xmlns="http://www.w3.org/2000/svg" p-id="1765">
  <path d="M729.462366 88.086022c32.916645 0 59.694796 26.260645 60.537118 58.973591l0.022021 1.585548v87.463914h-66.064516V154.150538h-572.55914v567.053763h82.580646V297.290323c0-32.916645 26.260645-59.694796 58.973591-60.537119L294.537634 236.731183h583.569893c32.916645 0 59.694796 26.260645 60.537118 58.973591l0.022022 1.585549v578.064516c0 32.916645-26.260645 59.694796-58.973592 60.537118l-1.585548 0.022021h-583.569893c-32.916645 0-59.694796-26.260645-60.537118-58.973591L233.978495 875.354839v-88.086022h-88.086022c-32.916645 0-59.694796-26.260645-60.537118-58.973591L85.333333 726.709677V148.645161c0-32.916645 26.260645-59.694796 58.973592-60.537118L145.892473 88.086022h583.569893z m143.139785 214.709677h-572.55914v567.053763h572.55914V302.795699zM589.075269 423.913978a33.032258 33.032258 0 0 1 33.010236 31.793549L622.107527 456.946237v99.096774h110.107527a33.032258 33.032258 0 0 1 1.238709 66.042494L732.215054 622.107527h-110.107527v115.612903a33.032258 33.032258 0 0 1-66.042495 1.23871L556.043011 737.72043v-115.612903H440.430108a33.032258 33.032258 0 0 1-1.23871-66.042495L440.430108 556.043011h115.612903V456.946237a33.032258 33.032258 0 0 1 33.032258-33.032259z" p-id="1766"></path>
</svg>