
<svg viewBox="0 0 1024 1024"  version="1.1" xmlns="http://www.w3.org/2000/svg">
  <path fill="currentColor" d="M972.8 56.384H51.2a25.6 25.6 0 0 0-25.6 25.6v746.688a25.6 25.6 0 0 0 25.6 25.6h496.128a25.6 25.6 0 1 0 0-51.2H76.8V107.584h870.4v227.392a25.6 25.6 0 1 0 51.2 0V81.984a25.6 25.6 0 0 0-25.6-25.6zM191.232 563.072a25.6 25.6 0 1 0 0 51.2h186.688a25.6 25.6 0 1 0 0-51.2H191.232zM856.832 268.672a25.6 25.6 0 0 0-25.6-25.6h-640a25.6 25.6 0 1 0 0 51.2h640a25.6 25.6 0 0 0 25.6-25.6zM510.144 428.672a25.6 25.6 0 0 0-25.6-25.6H191.232a25.6 25.6 0 1 0 0 51.2h293.312a25.6 25.6 0 0 0 25.6-25.6zM980.16 566.208c0-111.232-90.496-201.728-201.664-201.728S576.832 454.976 576.832 566.208c0 67.968 33.92 128.128 85.632 164.736l-45.696 205.568a25.664 25.664 0 0 0 39.232 26.88l128.512-85.824 120.256 85.376a25.6 25.6 0 0 0 39.808-26.496l-47.104-207.616a201.28 201.28 0 0 0 82.688-162.496z m-352.128 0c0-83.008 67.52-150.528 150.464-150.528s150.464 67.52 150.464 150.528c0 82.944-67.52 150.528-150.464 150.528s-150.464-67.52-150.464-150.528z m251.712 316.16l-80-56.832a25.6 25.6 0 0 0-29.056-0.448l-90.112 60.16 28.864-129.792a199.808 199.808 0 0 0 141.312-1.152l29.056 128.064z" />
</svg>