<svg viewBox="0 0 1024 1024" version="1.1" xmlns="http://www.w3.org/2000/svg">
  <path fill="currentColor" d="M729.014851 511.619803c17.650883 0 38.563343 2.813909 55.254938 6.395247 10.040539 2.877861 11.063778 10.552158 10.488206 16.307881 0.383715 35.237814 8.761489 57.685133 24.941466 67.150099 14.709069 8.761489 36.644768 8.249869 65.615239-1.534859 1.918574-1.918574 15.028832-9.337061 23.918226-0.639525 21.296174 24.941465 37.73196 57.10956 48.348071 89.213703 3.325529 10.360301-3.325529 15.924166-7.674297 18.162503-27.179802 20.65665-40.673774 40.929584-40.673774 60.754852 0 19.185743 16.819501 38.435438 28.330947 49.307358l6.587105 5.883628 3.581338 2.813909 5.116198 2.558099c4.029006 2.046479 7.994059 5.755723 4.732483 15.540451-10.999826 34.214574-25.261228 66.062907-48.348071 92.155517-5.372008 6.395248-12.9184 2.941814-17.075311-0.447667-31.144855-10.616111-55.382844-10.871921-72.458154-0.831382-15.668356 9.209156-24.941465 31.848333-27.88328 67.981481 0.703477 4.668531 0.447667 12.534685-8.825441 14.836974a246.21703 246.21703 0 0 1-107.056444 0.25581c-6.523152-1.27905-7.48244-5.883628-7.48244-10.424253l0.127905-5.308056-0.511619-5.244103c-1.598812-14.005592-8.825442-49.307358-30.505331-62.097853-15.348594-9.017299-38.883105-9.017299-70.603533 0-4.220863 3.837149-12.534685 9.464966-18.61017 1.279049-23.982178-26.86004-38.627295-59.987422-49.691073-95.481045-1.918574-6.778962 1.087192-9.592871 4.732483-11.959113l4.284816-2.749957 1.534859-1.279049 5.18015-4.796436 7.034773-7.738249c9.976586-11.959113 21.551984-29.929758 21.551984-48.348072 0-19.441552-14.517212-36.325006-23.662416-45.150447l-6.906867-6.267343-5.499913-3.837148c-4.476673-3.581339-9.273109-9.401014-5.883628-19.697363 10.871921-31.400665 23.534511-62.353663 44.830685-86.783509 8.569632-8.825442 17.586931-4.029006 22.383367 0 33.766907 9.720776 58.836277 9.720776 75.463921 0 14.709069-8.633584 19.825267-31.912285 21.807794-47.964356l0.959287-9.464967 0.959287-12.9184c0.76743-5.69177 3.389481-13.366067 13.238162-14.964879 15.604404-3.069719 31.720428-4.668531 48.348072-4.66853z m17.522978-511.619803c89.40556 0 163.270669 74.504634 168.386867 169.729869l0.319763 10.232397v310.80903c0 14.709069-10.488206 27.051897-24.237988 28.394899a26.987945 26.987945 0 0 1-28.586757-23.278701l-0.447667-5.116198v-310.80903c0-64.592-46.813212-118.184174-107.184349-122.788753l-8.313822-0.383715H232.232022c-60.562994 0-110.82964 49.882931-115.114455 114.347026l-0.319763 8.825442v662.163929c0 64.975715 47.260879 118.312079 107.184349 122.788753l8.313822 0.319762h265.786487c13.813735 0 25.32518 11.191683 26.60423 25.8368a28.139089 28.139089 0 0 1-21.743842 30.569283l-4.860388 0.447668H232.16807c-89.469513 0-163.334622-74.504634-168.45082-169.793822L63.46144 842.062242V180.026218C63.46144 84.545172 133.233591 5.627818 222.575199 0.25581L232.16807 0h514.369759z m-17.522978 568.473553l-9.912634 0.191858-1.918574 0.191857-0.191858 1.918574c-5.116198 32.104143-15.988119 58.196753-39.970297 75.591826l-7.610344 4.988293c-25.453085 14.964879-55.702606 17.714836-90.94042 10.935873l-7.610345-1.662764-5.308055 10.488206-4.732483 10.744016 1.343002 1.406954c18.226455 19.441552 30.889046 41.697014 33.575049 69.324484l0.51162 10.744015c0 29.290234-11.127731 54.807271-29.418139 78.981307l-7.162677 8.825442 2.110432 4.860388 4.732483 9.848681 4.988293 9.081252 4.796436-0.959287c29.929758-5.69177 56.022368-4.220863 78.661544 6.267342l8.313822 4.348769c28.458852 16.819501 44.19116 44.383018 52.44103 76.679017l1.023239 4.604579 12.278876 0.51162 10.87192-0.319763 3.197624-0.25581 0.127905-0.639525c6.906867-33.447145 20.592697-59.347897 43.551636-75.847635l7.162677-4.732483c24.110083-14.19745 51.801505-17.395073 82.690551-11.895161l9.464966 1.918574 4.476673-8.058011 4.476674-9.273109 1.470906-3.581339-1.598811-1.534859c-21.232222-21.743842-35.813386-45.406257-38.563343-74.760444L855.960514 767.429704c0-32.296 13.749782-60.307184 38.179628-85.312602l2.238337-2.238337-2.558099-5.499913-4.988294-9.720776-3.453433-5.819675-6.075485 1.598812c-28.778614 6.587105-54.359604 5.69177-76.998781-4.732484l-8.313821-4.348768c-26.220515-15.348594-41.377252-40.737727-48.220167-73.545347l-1.534859-8.505679-5.116198-0.447667-10.104491-0.383715z m-0.191858 85.24865c58.836277 0 106.544824 50.90617 106.544824 113.707501 0 62.737378-47.708547 113.643549-106.544824 113.643548-58.836277 0-106.544824-50.90617-106.544824-113.643548 0-62.801331 47.708547-113.707501 106.544824-113.707501z m0 56.85375c-29.418139 0-53.272412 25.453085-53.272412 56.853751 0 31.336713 23.854273 56.789798 53.272412 56.789798 29.418139 0 53.272412-25.453085 53.272412-56.789798 0-31.400665-23.854273-56.917703-53.272412-56.917703z m-354.680428-28.458851c13.749782 0 25.32518 11.191683 26.540277 25.900752a28.139089 28.139089 0 0 1-21.743841 30.505331l-4.796436 0.447667H222.703104a27.371659 27.371659 0 0 1-26.60423-25.8368 28.139089 28.139089 0 0 1 21.807794-30.569283l4.796436-0.447667h151.439461z m106.544824-227.35105c13.749782 0 25.32518 11.191683 26.540277 25.8368a28.139089 28.139089 0 0 1-21.743841 30.569283L480.623436 511.619803H222.703104a27.371659 27.371659 0 0 1-26.60423-25.900753 28.139089 28.139089 0 0 1 21.807794-30.505331l4.796436-0.447667h257.984285z m274.803786-227.415002c13.749782 0 25.32518 11.191683 26.540278 25.900752a28.139089 28.139089 0 0 1-21.743842 30.505331l-4.796436 0.447667H222.703104a27.371659 27.371659 0 0 1-26.60423-25.8368 28.139089 28.139089 0 0 1 21.807794-30.50533l4.796436-0.51162h532.724119z"  />
</svg>