
<svg fill="currentColor" viewBox="0 0 1024 1024" version="1.1" xmlns="http://www.w3.org/2000/svg">
  <path d="M1221.843862 626.758621l-8.368552-12.852966c-19.244138-32.485517-52.859586-49.18731-88.064-43.325793-12.25269 1.624276-24.046345 6.355862-32.591448 12.711724l-235.696552 143.183448C852.568276 669.307586 811.749517 635.586207 746.001655 635.586207h-102.046896c-18.926345 0-46.362483-9.816276-72.915862-19.279448-29.837241-10.699034-57.944276-20.727172-81.778759-20.727173h-102.046897c-42.937379 0-79.024552 14.406621-108.049655 25.988414-18.785103 7.521103-34.992552 14.018207-46.644965 14.018207l-3.566345-25.988414c0-29.307586-25.035034-54.024828-54.625104-54.024827H86.545655c-29.201655 0-51.23531 23.234207-51.23531 54.024827v329.516138c0 31.214345 22.987034 56.637793 51.23531 56.637793h87.781517c23.092966 0 44.243862-17.655172 51.623725-40.006621h633.114482c8.827586 0 21.609931-1.341793 33.368276-7.415172 4.237241-1.200552 9.639724-3.03669 16.454621-6.708965l283.753931-186.085518a90.006069 90.006069 0 0 0 39.759448-56.214069 98.33931 98.33931 0 0 0-10.557793-72.527448zM174.327172 955.780414H86.545655c-7.697655 0-12.499862-8.615724-12.499862-16.595862v-329.551449c0-6.461793 3.283862-14.018207 12.499862-14.018206h87.781517c7.168 0 15.889655 6.285241 15.889656 14.018206v329.516138c0 8.262621-9.18069 16.595862-15.889656 16.595862zM1194.902069 689.611034a50.846897 50.846897 0 0 1-22.56331 31.849932l-282.482759 185.37931c-2.436414 1.235862-5.190621 2.224552-9.18069 3.283862l-4.837517 1.977379c-3.884138 2.259862-10.098759 3.566345-18.961655 3.566345H228.952276v-240.110345h3.531034c18.891034 0 38.241103-7.697655 60.663173-16.666483 27.365517-10.946207 58.33269-23.340138 94.066758-23.340137h102.046897c17.302069 0 43.643586 9.392552 69.102345 18.537931 29.590069 10.557793 60.098207 21.46869 85.592276 21.468689h102.046896c48.304552 0 72.809931 20.797793 72.809931 61.722483 0 8.615724-0.741517 17.054897-3.213241 24.717241-14.37131 23.375448-35.698759 33.544828-69.314207 33.615449h-207.518897v40.041931h207.236414c62.923034 0 91.912828-24.929103 103.988966-55.048828 0.953379-1.659586 1.942069-3.389793 2.824827-5.15531l261.04938-158.614069c4.766897-3.531034 10.451862-5.826207 17.019586-6.708966 19.915034-3.213241 38.488276 5.861517 49.928827 25.211586l8.333242 12.817656c7.097379 12.182069 9.18069 27.259586 5.720276 41.454344zM687.492414 558.397793c140.747034 0 255.258483-117.336276 255.258483-261.579034C942.750897 152.61131 828.239448 35.310345 687.492414 35.310345c-138.946207 0-252.009931 117.336276-252.009931 261.508414 0.03531 144.242759 113.099034 261.579034 252.009931 261.579034z m0-483.045517c119.384276 0 216.523034 99.328 216.523034 221.466483 0 122.173793-97.103448 221.537103-216.523034 221.537103-117.583448 0-213.274483-99.36331-213.274483-221.537103 0.03531-122.138483 95.691034-221.501793 213.274483-221.501793z" />
  <path d="M663.304828 395.475862a21.186207 21.186207 0 0 1-15.254069-6.497103l-86.192552-88.946759a22.775172 22.775172 0 0 1 0-31.426207 21.080276 21.080276 0 0 1 30.472827 0l70.973794 73.198345 135.591724-139.899586a21.044966 21.044966 0 0 1 30.472827 0 22.739862 22.739862 0 0 1 0 31.426207l-150.845793 155.648a21.221517 21.221517 0 0 1-15.218758 6.497103z" />
</svg>