<svg t="1638771969303" class="icon" viewBox="0 0 1024 1024" version="1.1" xmlns="http://www.w3.org/2000/svg" p-id="7332" xmlns:xlink="http://www.w3.org/1999/xlink">
  <defs>
    <style type="text/css"></style>
  </defs>
  <path fill="currentColor" d="M807.803871 132.129032c79.971097 0 146.13471 59.392 149.966452 135.101936L957.935484 274.167742v185.509161a33.032258 33.032258 0 0 1-65.83329 3.864774L891.870968 459.676903V274.167742c0-39.737806-34.221419-73.199484-78.484645-75.809032L807.770839 198.193548H183.196903c-45.056 0-81.094194 31.843097-83.901935 71.019355L99.096774 274.167742v508.696774c0 39.737806 34.221419 73.199484 78.484645 75.809032l5.615484 0.165162H363.354839a33.032258 33.032258 0 0 1 3.864774 65.83329L363.354839 924.903226H183.163871c-79.971097 0-146.13471-59.392-149.966452-135.101936L33.032258 782.864516V274.167742c0-76.667871 63.818323-138.306065 142.930581-141.873548L183.163871 132.129032h624.64z" p-id="7333"></path>
  <path fill="currentColor" d="M891.870968 330.322581a33.032258 33.032258 0 0 1 3.864774 65.83329L891.870968 396.387097H99.096774a33.032258 33.032258 0 0 1-3.864774-65.833291L99.096774 330.322581h792.774194zM891.870968 660.645161a66.064516 66.064516 0 0 1 66.064516 66.064516v132.129033a66.064516 66.064516 0 0 1-66.064516 66.064516H561.548387a66.064516 66.064516 0 0 1-66.064516-66.064516v-132.129033a66.064516 66.064516 0 0 1 66.064516-66.064516h330.322581z m0 66.064516H561.548387v132.129033h330.322581v-132.129033z" p-id="7334"></path>
  <path fill="currentColor" d="M726.709677 561.548387a66.064516 66.064516 0 0 0-65.899354 61.109678L660.645161 627.612903v59.986581h-66.064516V627.612903a132.129032 132.129032 0 0 1 264.092903-6.606451L858.83871 627.612903v59.986581h-66.064516V627.612903a66.064516 66.064516 0 0 0-66.064517-66.064516z" p-id="7335"></path>
</svg>