<svg t="1650252573260" class="icon" viewBox="0 0 1024 1024" version="1.1" xmlns="http://www.w3.org/2000/svg" p-id="2077" xmlns:xlink="http://www.w3.org/1999/xlink">
  <defs>
    <style type="text/css">
      @font-face {
        font-family: feedback-iconfont;
        src: url("//at.alicdn.com/t/font_1031158_u69w8yhxdu.woff2?t=1630033759944") format("woff2"), url("//at.alicdn.com/t/font_1031158_u69w8yhxdu.woff?t=1630033759944") format("woff"), url("//at.alicdn.com/t/font_1031158_u69w8yhxdu.ttf?t=1630033759944") format("truetype");
      }
    </style>
  </defs>
  <path fill="currentColor" d="M499 688l2.216 0.018c67.59 1.096 123.015 52.235 130.838 117.98L704 806v-46.5c0-18.502 14.998-33.5 33.5-33.5 18.502 0 33.5 14.998 33.5 33.5V806h90v-46.5c0-18.502 14.998-33.5 33.5-33.5 18.502 0 33.5 14.998 33.5 33.5v85c0 18.502-14.998 33.5-33.5 33.5-0.412 0-0.823-0.007-1.231-0.022-0.422 0.015-0.844 0.022-1.269 0.022H630c-3.016 0-5.945-0.37-8.74-1.068C600.283 923.546 553.432 956 499 956c-74.006 0-134-59.994-134-134s59.994-134 134-134z m14.5-594C639.697 94 742 196.303 742 322.5c0 73.967-35.145 139.726-89.647 181.487 38.767 13.806 75.33 33.382 108.578 58.185 15.936 11.889 19.217 34.446 7.329 50.382-11.89 15.936-34.446 19.217-50.382 7.328C659.115 576.042 587.924 552 513 552a36.12 36.12 0 0 1-7.979-0.887l-0.001-0.01c-172.075 4.182-312.69 135.274-331.806 303.24l-0.334 3.157H292c19.683 0 35.677 15.797 35.995 35.405l0.005 0.595c0 19.683-15.797 35.677-35.405 35.995l-0.595 0.005H135c-19.882 0-36-16.118-36-36 0-178.041 112.252-329.865 269.843-388.559l4.777-1.746-1.598-1.25C319.02 460.1 285 395.273 285 322.5 285 196.303 387.303 94 513.5 94zM499 760c-34.242 0-62 27.758-62 62 0 34.242 27.758 62 62 62 34.242 0 62-27.758 62-62 0-34.242-27.758-62-62-62z m14.5-594C427.067 166 357 236.067 357 322.5S427.067 479 513.5 479 670 408.933 670 322.5 599.933 166 513.5 166z" p-id="2078"></path>
</svg>