<svg fill="currentColor" viewBox="0 0 1024 1024" version="1.1" xmlns="http://www.w3.org/2000/svg">
  <path d="M97.45879365 901.96520636V98.36901588c0-4.68114286 3.64088889-8.32203175 8.32203175-8.32203174h676.16507936c4.68114286 0 7.80190476 3.64088889 8.32203175 7.80190476v295.43212698c0 16.12393651 13.0031746 29.12711111 29.12711111 29.12711111 16.12393651 0 29.12711111-13.0031746 29.12711111-29.12711111V98.36901588c0-36.92901587-30.16736508-66.57625397-66.57625397-66.57625397h-676.16507936C68.85180952 31.27263493 38.68444444 61.44000001 38.68444444 98.36901588v804.11631746c0 36.92901587 30.16736508 66.57625397 67.09638096 66.57625397H454.78603175c16.12393651 0 29.12711111-13.0031746 29.12711111-29.12711111 0-16.12393651-13.0031746-29.12711111-29.12711111-29.12711111H105.7808254c-4.68114286-0.52012698-8.32203175-4.16101587-8.32203175-8.84215873zM242.05409524 519.15174604c-16.12393651 0-29.12711111 13.0031746-29.12711111 29.12711111 0 16.12393651 13.0031746 29.12711111 29.12711111 29.12711111h117.02857143c16.12393651 0 29.12711111-13.0031746 29.12711111-29.12711111 0-16.12393651-13.0031746-29.12711111-29.12711111-29.12711111H242.05409524z m366.68952381-129.51161905c0-16.12393651-13.0031746-29.12711111-29.12711111-29.12711111H242.05409524c-16.12393651-0.52012698-30.16736508 11.96292063-30.68749207 28.08685715-0.52012698 16.12393651 11.96292063 30.16736508 28.08685715 30.68749206H579.61650794c15.60380952-0.52012698 29.12711111-13.52330159 29.12711111-29.6472381z m-29.6472381-182.04444444H242.05409524c-16.12393651 0-29.12711111 13.0031746-29.12711111 29.12711111s13.0031746 29.12711111 29.12711111 29.12711111H579.61650794c16.12393651 0 29.12711111-13.0031746 29.12711111-29.12711111s-13.52330159-29.12711111-29.6472381-29.12711111z m253.82196826 511.80495238h-58.25422223v-95.18323809c0.52012698-16.12393651-11.96292063-30.16736508-28.08685714-30.68749207-16.12393651-0.52012698-30.16736508 11.96292063-30.68749206 28.08685714v126.91098413c0 16.12393651 13.0031746 29.12711111 29.12711111 29.12711111h87.90146032c16.12393651 0.52012698 30.16736508-11.96292063 30.68749206-28.08685714 0.52012698-16.12393651-11.96292063-30.16736508-28.08685714-30.68749206-0.52012698 0.52012698-1.56038095 0.52012698-2.60063492 0.52012698zM747.09739683 505.62844445c-127.43111111 0-230.93638095 103.50526984-230.93638096 230.93638096s103.50526984 230.93638095 230.93638096 230.93638095 230.93638095-103.50526984 230.93638095-230.93638095c0-127.9512381-103.50526984-230.93638095-230.93638095-230.93638096z m0 402.57828572c-95.1832381 0-172.16203175-76.97879365-172.16203175-172.16203175s76.97879365-172.16203175 172.16203175-172.16203174 172.16203175 76.97879365 172.16203174 172.16203174-76.97879365 172.16203175-172.16203174 172.16203175z" />
</svg>