<svg t="1640068592726" class="icon" viewBox="0 0 1024 1024" version="1.1" xmlns="http://www.w3.org/2000/svg" p-id="2787" xmlns:xlink="http://www.w3.org/1999/xlink">
  <defs>
    <style type="text/css"></style>
  </defs>
  <path fill="currentColor" d="M672 992v-64h320v64H672z m160-224a160 160 0 1 1 160-160 160 160 0 0 1-160 160z m0-256a96 96 0 1 0 96 96 96 96 0 0 0-96-96z m32 320h96v64h-256v-64h96v-64h64v64zM192 672v-64h192v64H192zM192 224h416v64H192V224z m416 256H192v-64h416v64z m192-352a32 32 0 0 0-32-32H128a32 32 0 0 0-32 32v768a32 32 0 0 0 32 32h480v64H128a96 96 0 0 1-96-96V128a96 96 0 0 1 96-96h640a96 96 0 0 1 96 96v256h-64V128z" p-id="2788"></path>
</svg>