<svg width="24" height="24" viewBox="0 0 24 24" fill="none" xmlns="http://www.w3.org/2000/svg">
<path d="M7 5L7 21C7 21.5523 7.4477 22 8 22L16 22C16.5523 22 17 21.5523 17 21L17 5C17 4.4477 16.5523 4 16 4L8 4C7.4477 4 7 4.4477 7 5Z" stroke="currentColor" stroke-width="2" stroke-linecap="round" stroke-linejoin="round"/>
<path d="M10 3L10 2C10 1.4477 10.4477 1 11 1L13 1C13.5523 1 14 1.4477 14 2L14 3L10 3Z" stroke="currentColor"/>
<path d="M10.5 17.5L13.5 17.5" stroke="currentColor" stroke-width="2" stroke-linecap="round" stroke-linejoin="round"/>
<path d="M10.5 14.5L13.5 14.5" stroke="currentColor" stroke-width="2" stroke-linecap="round" stroke-linejoin="round"/>
<path d="M10.5 11.5L13.5 11.5" stroke="currentColor" stroke-width="2" stroke-linecap="round" stroke-linejoin="round"/>
<path d="M10.5 8.5L13.5 8.5" stroke="currentColor" stroke-width="2" stroke-linecap="round" stroke-linejoin="round"/>
</svg>
